<?xml version="1.0" standalone="no"?>
<!DOCTYPE svg PUBLIC "-//W3C//DTD SVG 20010904//EN"
 "http://www.w3.org/TR/2001/REC-SVG-20010904/DTD/svg10.dtd">
<svg version="1.0" xmlns="http://www.w3.org/2000/svg"
 width="120.000000pt" height="53.000000pt" viewBox="0 0 120.000000 53.000000"
 preserveAspectRatio="xMidYMid meet">

<g transform="translate(0.000000,53.000000) scale(0.100000,-0.100000)"
fill="#000000" stroke="none">
<path d="M290 380 c-14 -14 -20 -33 -20 -65 0 -45 0 -45 36 -45 36 0 73 15 86
34 25 36 -11 96 -57 96 -14 0 -34 -9 -45 -20z"/>
<path d="M505 387 c-3 -7 -5 -54 -3 -103 3 -81 5 -89 23 -89 16 0 21 8 23 38
3 35 5 37 37 37 32 0 34 -2 37 -37 2 -30 7 -38 23 -38 19 0 20 7 20 100 0 93
-1 100 -20 100 -16 0 -21 -8 -23 -37 -3 -36 -5 -38 -37 -38 -32 0 -34 2 -37
37 -3 39 -32 59 -43 30z"/>
<path d="M704 387 c-3 -8 -4 -54 -2 -103 2 -71 6 -89 18 -89 11 0 16 15 20 55
5 53 5 54 19 30 27 -49 42 -50 70 -7 l21 32 0 -53 c0 -39 4 -54 16 -59 25 -9
34 16 34 99 0 123 -18 139 -70 63 -17 -25 -33 -45 -35 -45 -2 0 -16 20 -32 45
-28 45 -49 56 -59 32z"/>
<path d="M942 384 c-26 -18 -30 -65 -7 -87 8 -9 28 -18 45 -22 16 -4 33 -11
36 -17 12 -19 -19 -27 -52 -13 -28 12 -35 11 -46 -2 -10 -13 -9 -18 11 -34 32
-26 95 -25 121 1 41 41 18 94 -45 106 -42 7 -52 19 -28 32 10 6 27 6 45 0 43
-15 62 6 29 33 -28 23 -78 25 -109 3z"/>
<path d="M150 240 c-39 -39 -11 -110 45 -110 38 0 65 36 65 87 l0 43 -45 0
c-32 0 -51 -6 -65 -20z"/>
<path d="M270 224 c0 -82 61 -123 110 -74 47 47 10 110 -65 110 -45 0 -45 0
-45 -36z"/>
</g>
</svg>
